<mxfile host="Electron" agent="Mozilla/5.0 (Windows NT 10.0; Win64; x64) AppleWebKit/537.36 (KHTML, like Gecko) draw.io/21.2.8 Chrome/112.0.5615.165 Electron/24.2.0 Safari/537.36" modified="2024-10-25T21:35:59.234Z" version="21.2.8" etag="lkRXtGBdVeYXSOnFjESR" type="device">
  <diagram name="PÃ¡gina-1" id="qqEd0WZUu5OXNK6tD5SR">
    <mxGraphModel dx="271" dy="-341" grid="1" gridSize="10" guides="1" tooltips="1" connect="1" arrows="1" fold="1" page="1" pageScale="1" pageWidth="827" pageHeight="1169" math="0" shadow="0">
      <root>
        <mxCell id="0" />
        <mxCell id="1" parent="0" />
        <mxCell id="DIb3Ruu_M2pxOwe5c37T-1" value="" style="group" parent="1" vertex="1" connectable="0">
          <mxGeometry x="880" y="1330" width="620" height="270" as="geometry" />
        </mxCell>
        <mxCell id="DIb3Ruu_M2pxOwe5c37T-2" value="administrador" style="rounded=0;whiteSpace=wrap;html=1;" parent="DIb3Ruu_M2pxOwe5c37T-1" vertex="1">
          <mxGeometry y="105" width="120" height="60" as="geometry" />
        </mxCell>
        <mxCell id="DIb3Ruu_M2pxOwe5c37T-3" value="sucursales" style="rounded=0;whiteSpace=wrap;html=1;" parent="DIb3Ruu_M2pxOwe5c37T-1" vertex="1">
          <mxGeometry x="500" y="105" width="120" height="60" as="geometry" />
        </mxCell>
        <mxCell id="DIb3Ruu_M2pxOwe5c37T-4" style="edgeStyle=orthogonalEdgeStyle;rounded=0;orthogonalLoop=1;jettySize=auto;html=1;exitX=0;exitY=0.5;exitDx=0;exitDy=0;entryX=1;entryY=0.5;entryDx=0;entryDy=0;" parent="DIb3Ruu_M2pxOwe5c37T-1" source="DIb3Ruu_M2pxOwe5c37T-6" target="DIb3Ruu_M2pxOwe5c37T-2" edge="1">
          <mxGeometry relative="1" as="geometry" />
        </mxCell>
        <mxCell id="DIb3Ruu_M2pxOwe5c37T-5" style="edgeStyle=orthogonalEdgeStyle;rounded=0;orthogonalLoop=1;jettySize=auto;html=1;exitX=1;exitY=0.5;exitDx=0;exitDy=0;entryX=0;entryY=0.5;entryDx=0;entryDy=0;" parent="DIb3Ruu_M2pxOwe5c37T-1" source="DIb3Ruu_M2pxOwe5c37T-6" target="DIb3Ruu_M2pxOwe5c37T-3" edge="1">
          <mxGeometry relative="1" as="geometry" />
        </mxCell>
        <mxCell id="DIb3Ruu_M2pxOwe5c37T-6" value="Sistema de gestion de&amp;nbsp;envios" style="ellipse;whiteSpace=wrap;html=1;aspect=fixed;" parent="DIb3Ruu_M2pxOwe5c37T-1" vertex="1">
          <mxGeometry x="180" width="270" height="270" as="geometry" />
        </mxCell>
        <mxCell id="DIb3Ruu_M2pxOwe5c37T-7" style="edgeStyle=orthogonalEdgeStyle;rounded=0;orthogonalLoop=1;jettySize=auto;html=1;exitX=1;exitY=0.25;exitDx=0;exitDy=0;entryX=-0.007;entryY=0.444;entryDx=0;entryDy=0;entryPerimeter=0;" parent="DIb3Ruu_M2pxOwe5c37T-1" source="DIb3Ruu_M2pxOwe5c37T-2" target="DIb3Ruu_M2pxOwe5c37T-6" edge="1">
          <mxGeometry relative="1" as="geometry" />
        </mxCell>
        <mxCell id="DIb3Ruu_M2pxOwe5c37T-8" style="edgeStyle=orthogonalEdgeStyle;rounded=0;orthogonalLoop=1;jettySize=auto;html=1;exitX=0;exitY=0.25;exitDx=0;exitDy=0;entryX=1;entryY=0.441;entryDx=0;entryDy=0;entryPerimeter=0;" parent="DIb3Ruu_M2pxOwe5c37T-1" source="DIb3Ruu_M2pxOwe5c37T-3" target="DIb3Ruu_M2pxOwe5c37T-6" edge="1">
          <mxGeometry relative="1" as="geometry" />
        </mxCell>
        <mxCell id="DIb3Ruu_M2pxOwe5c37T-9" value="0" style="text;html=1;align=center;verticalAlign=middle;whiteSpace=wrap;rounded=0;" parent="DIb3Ruu_M2pxOwe5c37T-1" vertex="1">
          <mxGeometry x="285" y="25" width="60" height="30" as="geometry" />
        </mxCell>
        <mxCell id="DIb3Ruu_M2pxOwe5c37T-25" value="" style="group" parent="1" vertex="1" connectable="0">
          <mxGeometry x="900" y="2140" width="660" height="435" as="geometry" />
        </mxCell>
        <mxCell id="DIb3Ruu_M2pxOwe5c37T-26" style="edgeStyle=orthogonalEdgeStyle;rounded=0;orthogonalLoop=1;jettySize=auto;html=1;exitX=0.75;exitY=0;exitDx=0;exitDy=0;entryX=0.5;entryY=1;entryDx=0;entryDy=0;fontFamily=Helvetica;fontSize=12;fontColor=default;" parent="DIb3Ruu_M2pxOwe5c37T-25" source="DIb3Ruu_M2pxOwe5c37T-27" target="DIb3Ruu_M2pxOwe5c37T-32" edge="1">
          <mxGeometry relative="1" as="geometry" />
        </mxCell>
        <mxCell id="DIb3Ruu_M2pxOwe5c37T-27" value="sucursales" style="rounded=0;whiteSpace=wrap;html=1;" parent="DIb3Ruu_M2pxOwe5c37T-25" vertex="1">
          <mxGeometry y="201" width="120" height="60" as="geometry" />
        </mxCell>
        <mxCell id="DIb3Ruu_M2pxOwe5c37T-28" style="edgeStyle=orthogonalEdgeStyle;rounded=0;orthogonalLoop=1;jettySize=auto;html=1;exitX=0.25;exitY=0;exitDx=0;exitDy=0;entryX=1;entryY=0.5;entryDx=0;entryDy=0;fontFamily=Helvetica;fontSize=12;fontColor=default;" parent="DIb3Ruu_M2pxOwe5c37T-25" source="DIb3Ruu_M2pxOwe5c37T-30" target="DIb3Ruu_M2pxOwe5c37T-43" edge="1">
          <mxGeometry relative="1" as="geometry" />
        </mxCell>
        <mxCell id="DIb3Ruu_M2pxOwe5c37T-30" value="administrador" style="rounded=0;whiteSpace=wrap;html=1;" parent="DIb3Ruu_M2pxOwe5c37T-25" vertex="1">
          <mxGeometry x="540" y="201" width="120" height="60" as="geometry" />
        </mxCell>
        <mxCell id="DIb3Ruu_M2pxOwe5c37T-31" style="edgeStyle=orthogonalEdgeStyle;rounded=0;orthogonalLoop=1;jettySize=auto;html=1;exitX=1;exitY=0.5;exitDx=0;exitDy=0;entryX=0;entryY=0.5;entryDx=0;entryDy=0;fontFamily=Helvetica;fontSize=12;fontColor=default;" parent="DIb3Ruu_M2pxOwe5c37T-25" source="DIb3Ruu_M2pxOwe5c37T-32" target="DIb3Ruu_M2pxOwe5c37T-64" edge="1">
          <mxGeometry relative="1" as="geometry">
            <Array as="points">
              <mxPoint x="220" y="95" />
              <mxPoint x="285" y="95" />
              <mxPoint x="285" y="85" />
            </Array>
          </mxGeometry>
        </mxCell>
        <mxCell id="DIb3Ruu_M2pxOwe5c37T-32" value="ver lista pedidos" style="ellipse;whiteSpace=wrap;html=1;aspect=fixed;" parent="DIb3Ruu_M2pxOwe5c37T-25" vertex="1">
          <mxGeometry x="140" y="95" width="80" height="80" as="geometry" />
        </mxCell>
        <mxCell id="DIb3Ruu_M2pxOwe5c37T-33" style="edgeStyle=orthogonalEdgeStyle;rounded=0;orthogonalLoop=1;jettySize=auto;html=1;exitX=1;exitY=0.5;exitDx=0;exitDy=0;entryX=0.25;entryY=0;entryDx=0;entryDy=0;fontFamily=Helvetica;fontSize=12;fontColor=default;" parent="DIb3Ruu_M2pxOwe5c37T-25" source="DIb3Ruu_M2pxOwe5c37T-35" target="DIb3Ruu_M2pxOwe5c37T-48" edge="1">
          <mxGeometry relative="1" as="geometry" />
        </mxCell>
        <mxCell id="DIb3Ruu_M2pxOwe5c37T-35" value="realizar el envio" style="ellipse;whiteSpace=wrap;html=1;aspect=fixed;" parent="DIb3Ruu_M2pxOwe5c37T-25" vertex="1">
          <mxGeometry x="260" y="155" width="80" height="80" as="geometry" />
        </mxCell>
        <mxCell id="DIb3Ruu_M2pxOwe5c37T-38" value="" style="group" parent="DIb3Ruu_M2pxOwe5c37T-25" vertex="1" connectable="0">
          <mxGeometry x="250" y="15" width="120" height="50" as="geometry" />
        </mxCell>
        <mxCell id="DIb3Ruu_M2pxOwe5c37T-39" value="" style="endArrow=none;html=1;rounded=0;fontFamily=Helvetica;fontSize=12;fontColor=default;" parent="DIb3Ruu_M2pxOwe5c37T-38" edge="1">
          <mxGeometry width="50" height="50" relative="1" as="geometry">
            <mxPoint y="50" as="sourcePoint" />
            <mxPoint x="120" y="50" as="targetPoint" />
          </mxGeometry>
        </mxCell>
        <mxCell id="DIb3Ruu_M2pxOwe5c37T-40" value="" style="endArrow=none;html=1;rounded=0;fontFamily=Helvetica;fontSize=12;fontColor=default;" parent="DIb3Ruu_M2pxOwe5c37T-38" edge="1">
          <mxGeometry width="50" height="50" relative="1" as="geometry">
            <mxPoint as="sourcePoint" />
            <mxPoint x="120" as="targetPoint" />
          </mxGeometry>
        </mxCell>
        <mxCell id="DIb3Ruu_M2pxOwe5c37T-41" value="productos" style="text;html=1;align=center;verticalAlign=middle;whiteSpace=wrap;rounded=0;fontFamily=Helvetica;fontSize=12;fontColor=default;" parent="DIb3Ruu_M2pxOwe5c37T-38" vertex="1">
          <mxGeometry x="30" y="10" width="60" height="30" as="geometry" />
        </mxCell>
        <mxCell id="DIb3Ruu_M2pxOwe5c37T-42" style="edgeStyle=orthogonalEdgeStyle;rounded=0;orthogonalLoop=1;jettySize=auto;html=1;exitX=0;exitY=0.5;exitDx=0;exitDy=0;entryX=1;entryY=0.5;entryDx=0;entryDy=0;fontFamily=Helvetica;fontSize=12;fontColor=default;" parent="DIb3Ruu_M2pxOwe5c37T-25" source="DIb3Ruu_M2pxOwe5c37T-43" target="DIb3Ruu_M2pxOwe5c37T-41" edge="1">
          <mxGeometry relative="1" as="geometry" />
        </mxCell>
        <mxCell id="DIb3Ruu_M2pxOwe5c37T-43" value="registrar pedido" style="ellipse;whiteSpace=wrap;html=1;aspect=fixed;" parent="DIb3Ruu_M2pxOwe5c37T-25" vertex="1">
          <mxGeometry x="430" width="80" height="80" as="geometry" />
        </mxCell>
        <mxCell id="DIb3Ruu_M2pxOwe5c37T-44" style="edgeStyle=orthogonalEdgeStyle;rounded=0;orthogonalLoop=1;jettySize=auto;html=1;exitX=0;exitY=0.5;exitDx=0;exitDy=0;entryX=0.5;entryY=0;entryDx=0;entryDy=0;fontFamily=Helvetica;fontSize=12;fontColor=default;" parent="DIb3Ruu_M2pxOwe5c37T-25" source="DIb3Ruu_M2pxOwe5c37T-41" target="DIb3Ruu_M2pxOwe5c37T-32" edge="1">
          <mxGeometry relative="1" as="geometry" />
        </mxCell>
        <mxCell id="DIb3Ruu_M2pxOwe5c37T-45" value="" style="group" parent="DIb3Ruu_M2pxOwe5c37T-25" vertex="1" connectable="0">
          <mxGeometry x="370" y="266" width="120" height="59" as="geometry" />
        </mxCell>
        <mxCell id="DIb3Ruu_M2pxOwe5c37T-46" value="" style="endArrow=none;html=1;rounded=0;fontFamily=Helvetica;fontSize=12;fontColor=default;" parent="DIb3Ruu_M2pxOwe5c37T-45" edge="1">
          <mxGeometry width="50" height="50" relative="1" as="geometry">
            <mxPoint y="59" as="sourcePoint" />
            <mxPoint x="120" y="59" as="targetPoint" />
          </mxGeometry>
        </mxCell>
        <mxCell id="DIb3Ruu_M2pxOwe5c37T-47" value="" style="endArrow=none;html=1;rounded=0;fontFamily=Helvetica;fontSize=12;fontColor=default;" parent="DIb3Ruu_M2pxOwe5c37T-45" edge="1">
          <mxGeometry width="50" height="50" relative="1" as="geometry">
            <mxPoint as="sourcePoint" />
            <mxPoint x="120" as="targetPoint" />
          </mxGeometry>
        </mxCell>
        <mxCell id="DIb3Ruu_M2pxOwe5c37T-48" value="registros" style="text;html=1;align=center;verticalAlign=middle;whiteSpace=wrap;rounded=0;fontFamily=Helvetica;fontSize=12;fontColor=default;" parent="DIb3Ruu_M2pxOwe5c37T-45" vertex="1">
          <mxGeometry x="30" y="15" width="60" height="30" as="geometry" />
        </mxCell>
        <mxCell id="DIb3Ruu_M2pxOwe5c37T-52" style="edgeStyle=orthogonalEdgeStyle;rounded=0;orthogonalLoop=1;jettySize=auto;html=1;exitX=1;exitY=0.25;exitDx=0;exitDy=0;entryX=0.25;entryY=1;entryDx=0;entryDy=0;fontFamily=Helvetica;fontSize=12;fontColor=default;" parent="DIb3Ruu_M2pxOwe5c37T-25" source="DIb3Ruu_M2pxOwe5c37T-48" target="DIb3Ruu_M2pxOwe5c37T-30" edge="1">
          <mxGeometry relative="1" as="geometry" />
        </mxCell>
        <mxCell id="DIb3Ruu_M2pxOwe5c37T-53" value="1" style="text;html=1;align=center;verticalAlign=middle;whiteSpace=wrap;rounded=0;fontFamily=Helvetica;fontSize=12;fontColor=default;" parent="DIb3Ruu_M2pxOwe5c37T-25" vertex="1">
          <mxGeometry x="150" y="95" width="60" height="30" as="geometry" />
        </mxCell>
        <mxCell id="DIb3Ruu_M2pxOwe5c37T-54" value="1" style="text;html=1;align=center;verticalAlign=middle;whiteSpace=wrap;rounded=0;fontFamily=Helvetica;fontSize=12;fontColor=default;" parent="DIb3Ruu_M2pxOwe5c37T-25" vertex="1">
          <mxGeometry x="440" y="5" width="60" height="30" as="geometry" />
        </mxCell>
        <mxCell id="DIb3Ruu_M2pxOwe5c37T-55" value="1" style="text;html=1;align=center;verticalAlign=middle;whiteSpace=wrap;rounded=0;fontFamily=Helvetica;fontSize=12;fontColor=default;" parent="DIb3Ruu_M2pxOwe5c37T-25" vertex="1">
          <mxGeometry x="270" y="164.5" width="60" height="30" as="geometry" />
        </mxCell>
        <mxCell id="DIb3Ruu_M2pxOwe5c37T-62" style="edgeStyle=orthogonalEdgeStyle;rounded=0;orthogonalLoop=1;jettySize=auto;html=1;exitX=0;exitY=1;exitDx=0;exitDy=0;entryX=0.5;entryY=0;entryDx=0;entryDy=0;fontFamily=Helvetica;fontSize=12;fontColor=default;" parent="DIb3Ruu_M2pxOwe5c37T-25" source="DIb3Ruu_M2pxOwe5c37T-63" target="DIb3Ruu_M2pxOwe5c37T-35" edge="1">
          <mxGeometry relative="1" as="geometry">
            <Array as="points">
              <mxPoint x="352" y="135" />
              <mxPoint x="300" y="135" />
            </Array>
          </mxGeometry>
        </mxCell>
        <mxCell id="DIb3Ruu_M2pxOwe5c37T-63" value="aceptar un pedido" style="ellipse;whiteSpace=wrap;html=1;aspect=fixed;strokeColor=default;align=center;verticalAlign=middle;fontFamily=Helvetica;fontSize=12;fontColor=default;fillColor=default;" parent="DIb3Ruu_M2pxOwe5c37T-25" vertex="1">
          <mxGeometry x="340" y="70" width="80" height="80" as="geometry" />
        </mxCell>
        <mxCell id="DIb3Ruu_M2pxOwe5c37T-64" value="1" style="text;html=1;align=center;verticalAlign=middle;whiteSpace=wrap;rounded=0;fontFamily=Helvetica;fontSize=12;fontColor=default;" parent="DIb3Ruu_M2pxOwe5c37T-25" vertex="1">
          <mxGeometry x="350" y="70" width="60" height="30" as="geometry" />
        </mxCell>
        <mxCell id="DIb3Ruu_M2pxOwe5c37T-97" style="edgeStyle=orthogonalEdgeStyle;rounded=0;orthogonalLoop=1;jettySize=auto;html=1;exitX=0.75;exitY=0;exitDx=0;exitDy=0;entryX=0.5;entryY=1;entryDx=0;entryDy=0;fontFamily=Helvetica;fontSize=12;fontColor=default;" parent="1" source="DIb3Ruu_M2pxOwe5c37T-98" target="DIb3Ruu_M2pxOwe5c37T-102" edge="1">
          <mxGeometry relative="1" as="geometry" />
        </mxCell>
        <mxCell id="DIb3Ruu_M2pxOwe5c37T-98" value="sucursales" style="rounded=0;whiteSpace=wrap;html=1;" parent="1" vertex="1">
          <mxGeometry x="900" y="2821" width="120" height="60" as="geometry" />
        </mxCell>
        <mxCell id="DIb3Ruu_M2pxOwe5c37T-99" style="edgeStyle=orthogonalEdgeStyle;rounded=0;orthogonalLoop=1;jettySize=auto;html=1;exitX=0.25;exitY=0;exitDx=0;exitDy=0;entryX=1;entryY=0.5;entryDx=0;entryDy=0;fontFamily=Helvetica;fontSize=12;fontColor=default;" parent="1" source="DIb3Ruu_M2pxOwe5c37T-100" target="DIb3Ruu_M2pxOwe5c37T-110" edge="1">
          <mxGeometry relative="1" as="geometry" />
        </mxCell>
        <mxCell id="DIb3Ruu_M2pxOwe5c37T-126" style="edgeStyle=orthogonalEdgeStyle;rounded=0;orthogonalLoop=1;jettySize=auto;html=1;exitX=0;exitY=0.75;exitDx=0;exitDy=0;entryX=1;entryY=1;entryDx=0;entryDy=0;" parent="1" source="DIb3Ruu_M2pxOwe5c37T-100" target="DIb3Ruu_M2pxOwe5c37T-123" edge="1">
          <mxGeometry relative="1" as="geometry" />
        </mxCell>
        <mxCell id="DIb3Ruu_M2pxOwe5c37T-100" value="administrador" style="rounded=0;whiteSpace=wrap;html=1;" parent="1" vertex="1">
          <mxGeometry x="1440" y="2821" width="120" height="60" as="geometry" />
        </mxCell>
        <mxCell id="DIb3Ruu_M2pxOwe5c37T-127" style="edgeStyle=orthogonalEdgeStyle;rounded=0;orthogonalLoop=1;jettySize=auto;html=1;exitX=1;exitY=0.5;exitDx=0;exitDy=0;entryX=0;entryY=0.5;entryDx=0;entryDy=0;" parent="1" source="DIb3Ruu_M2pxOwe5c37T-102" target="DIb3Ruu_M2pxOwe5c37T-121" edge="1">
          <mxGeometry relative="1" as="geometry" />
        </mxCell>
        <mxCell id="DIb3Ruu_M2pxOwe5c37T-102" value="ver lista pedidos" style="ellipse;whiteSpace=wrap;html=1;aspect=fixed;" parent="1" vertex="1">
          <mxGeometry x="960" y="2690" width="80" height="80" as="geometry" />
        </mxCell>
        <mxCell id="DIb3Ruu_M2pxOwe5c37T-103" style="edgeStyle=orthogonalEdgeStyle;rounded=0;orthogonalLoop=1;jettySize=auto;html=1;exitX=1;exitY=0.5;exitDx=0;exitDy=0;entryX=0.25;entryY=0;entryDx=0;entryDy=0;fontFamily=Helvetica;fontSize=12;fontColor=default;" parent="1" source="DIb3Ruu_M2pxOwe5c37T-104" target="DIb3Ruu_M2pxOwe5c37T-115" edge="1">
          <mxGeometry relative="1" as="geometry" />
        </mxCell>
        <mxCell id="DIb3Ruu_M2pxOwe5c37T-104" value="realizar el envio" style="ellipse;whiteSpace=wrap;html=1;aspect=fixed;" parent="1" vertex="1">
          <mxGeometry x="1160" y="2775" width="80" height="80" as="geometry" />
        </mxCell>
        <mxCell id="DIb3Ruu_M2pxOwe5c37T-105" value="" style="group" parent="1" vertex="1" connectable="0">
          <mxGeometry x="1150" y="2635" width="120" height="50" as="geometry" />
        </mxCell>
        <mxCell id="DIb3Ruu_M2pxOwe5c37T-106" value="" style="endArrow=none;html=1;rounded=0;fontFamily=Helvetica;fontSize=12;fontColor=default;" parent="DIb3Ruu_M2pxOwe5c37T-105" edge="1">
          <mxGeometry width="50" height="50" relative="1" as="geometry">
            <mxPoint y="50" as="sourcePoint" />
            <mxPoint x="120" y="50" as="targetPoint" />
          </mxGeometry>
        </mxCell>
        <mxCell id="DIb3Ruu_M2pxOwe5c37T-107" value="" style="endArrow=none;html=1;rounded=0;fontFamily=Helvetica;fontSize=12;fontColor=default;" parent="DIb3Ruu_M2pxOwe5c37T-105" edge="1">
          <mxGeometry width="50" height="50" relative="1" as="geometry">
            <mxPoint as="sourcePoint" />
            <mxPoint x="120" as="targetPoint" />
          </mxGeometry>
        </mxCell>
        <mxCell id="DIb3Ruu_M2pxOwe5c37T-108" value="productos" style="text;html=1;align=center;verticalAlign=middle;whiteSpace=wrap;rounded=0;fontFamily=Helvetica;fontSize=12;fontColor=default;" parent="DIb3Ruu_M2pxOwe5c37T-105" vertex="1">
          <mxGeometry x="30" y="10" width="60" height="30" as="geometry" />
        </mxCell>
        <mxCell id="DIb3Ruu_M2pxOwe5c37T-109" style="edgeStyle=orthogonalEdgeStyle;rounded=0;orthogonalLoop=1;jettySize=auto;html=1;exitX=0;exitY=0.5;exitDx=0;exitDy=0;entryX=1;entryY=0.5;entryDx=0;entryDy=0;fontFamily=Helvetica;fontSize=12;fontColor=default;" parent="1" source="DIb3Ruu_M2pxOwe5c37T-110" target="DIb3Ruu_M2pxOwe5c37T-108" edge="1">
          <mxGeometry relative="1" as="geometry" />
        </mxCell>
        <mxCell id="DIb3Ruu_M2pxOwe5c37T-110" value="registrar pedido" style="ellipse;whiteSpace=wrap;html=1;aspect=fixed;" parent="1" vertex="1">
          <mxGeometry x="1330" y="2620" width="80" height="80" as="geometry" />
        </mxCell>
        <mxCell id="DIb3Ruu_M2pxOwe5c37T-111" style="edgeStyle=orthogonalEdgeStyle;rounded=0;orthogonalLoop=1;jettySize=auto;html=1;exitX=0;exitY=0.5;exitDx=0;exitDy=0;entryX=0.5;entryY=0;entryDx=0;entryDy=0;fontFamily=Helvetica;fontSize=12;fontColor=default;" parent="1" source="DIb3Ruu_M2pxOwe5c37T-108" target="DIb3Ruu_M2pxOwe5c37T-102" edge="1">
          <mxGeometry relative="1" as="geometry" />
        </mxCell>
        <mxCell id="DIb3Ruu_M2pxOwe5c37T-112" value="" style="group" parent="1" vertex="1" connectable="0">
          <mxGeometry x="1250" y="2886" width="120" height="59" as="geometry" />
        </mxCell>
        <mxCell id="DIb3Ruu_M2pxOwe5c37T-113" value="" style="endArrow=none;html=1;rounded=0;fontFamily=Helvetica;fontSize=12;fontColor=default;" parent="DIb3Ruu_M2pxOwe5c37T-112" edge="1">
          <mxGeometry width="50" height="50" relative="1" as="geometry">
            <mxPoint y="59" as="sourcePoint" />
            <mxPoint x="120" y="59" as="targetPoint" />
          </mxGeometry>
        </mxCell>
        <mxCell id="DIb3Ruu_M2pxOwe5c37T-114" value="" style="endArrow=none;html=1;rounded=0;fontFamily=Helvetica;fontSize=12;fontColor=default;" parent="DIb3Ruu_M2pxOwe5c37T-112" edge="1">
          <mxGeometry width="50" height="50" relative="1" as="geometry">
            <mxPoint as="sourcePoint" />
            <mxPoint x="120" as="targetPoint" />
          </mxGeometry>
        </mxCell>
        <mxCell id="DIb3Ruu_M2pxOwe5c37T-115" value="registros" style="text;html=1;align=center;verticalAlign=middle;whiteSpace=wrap;rounded=0;fontFamily=Helvetica;fontSize=12;fontColor=default;" parent="DIb3Ruu_M2pxOwe5c37T-112" vertex="1">
          <mxGeometry x="30" y="15" width="60" height="30" as="geometry" />
        </mxCell>
        <mxCell id="DIb3Ruu_M2pxOwe5c37T-116" style="edgeStyle=orthogonalEdgeStyle;rounded=0;orthogonalLoop=1;jettySize=auto;html=1;exitX=1;exitY=0.5;exitDx=0;exitDy=0;entryX=0.25;entryY=1;entryDx=0;entryDy=0;fontFamily=Helvetica;fontSize=12;fontColor=default;" parent="1" source="DIb3Ruu_M2pxOwe5c37T-115" target="DIb3Ruu_M2pxOwe5c37T-100" edge="1">
          <mxGeometry relative="1" as="geometry" />
        </mxCell>
        <mxCell id="DIb3Ruu_M2pxOwe5c37T-118" value="1" style="text;html=1;align=center;verticalAlign=middle;whiteSpace=wrap;rounded=0;fontFamily=Helvetica;fontSize=12;fontColor=default;" parent="1" vertex="1">
          <mxGeometry x="1340" y="2625" width="60" height="30" as="geometry" />
        </mxCell>
        <mxCell id="DIb3Ruu_M2pxOwe5c37T-119" value="1" style="text;html=1;align=center;verticalAlign=middle;whiteSpace=wrap;rounded=0;fontFamily=Helvetica;fontSize=12;fontColor=default;" parent="1" vertex="1">
          <mxGeometry x="1170" y="2784.5" width="60" height="30" as="geometry" />
        </mxCell>
        <mxCell id="DIb3Ruu_M2pxOwe5c37T-128" style="edgeStyle=orthogonalEdgeStyle;rounded=0;orthogonalLoop=1;jettySize=auto;html=1;exitX=1;exitY=0.5;exitDx=0;exitDy=0;entryX=0.5;entryY=0;entryDx=0;entryDy=0;" parent="1" source="DIb3Ruu_M2pxOwe5c37T-121" target="DIb3Ruu_M2pxOwe5c37T-104" edge="1">
          <mxGeometry relative="1" as="geometry" />
        </mxCell>
        <mxCell id="DIb3Ruu_M2pxOwe5c37T-121" value="aceptar un pedido" style="ellipse;whiteSpace=wrap;html=1;aspect=fixed;strokeColor=default;align=center;verticalAlign=middle;fontFamily=Helvetica;fontSize=12;fontColor=default;fillColor=default;" parent="1" vertex="1">
          <mxGeometry x="1080" y="2695" width="80" height="80" as="geometry" />
        </mxCell>
        <mxCell id="DIb3Ruu_M2pxOwe5c37T-125" style="edgeStyle=orthogonalEdgeStyle;rounded=0;orthogonalLoop=1;jettySize=auto;html=1;exitX=0.5;exitY=1;exitDx=0;exitDy=0;" parent="1" source="DIb3Ruu_M2pxOwe5c37T-123" target="DIb3Ruu_M2pxOwe5c37T-115" edge="1">
          <mxGeometry relative="1" as="geometry" />
        </mxCell>
        <mxCell id="DIb3Ruu_M2pxOwe5c37T-123" value="informar envio realizado" style="ellipse;whiteSpace=wrap;html=1;aspect=fixed;" parent="1" vertex="1">
          <mxGeometry x="1340" y="2770" width="80" height="80" as="geometry" />
        </mxCell>
        <mxCell id="DIb3Ruu_M2pxOwe5c37T-132" style="edgeStyle=orthogonalEdgeStyle;rounded=0;orthogonalLoop=1;jettySize=auto;html=1;exitX=0.25;exitY=0;exitDx=0;exitDy=0;entryX=1;entryY=0.5;entryDx=0;entryDy=0;" parent="1" source="DIb3Ruu_M2pxOwe5c37T-124" target="DIb3Ruu_M2pxOwe5c37T-129" edge="1">
          <mxGeometry relative="1" as="geometry" />
        </mxCell>
        <mxCell id="DIb3Ruu_M2pxOwe5c37T-124" value="2" style="text;html=1;align=center;verticalAlign=middle;whiteSpace=wrap;rounded=0;fontFamily=Helvetica;fontSize=12;fontColor=default;" parent="1" vertex="1">
          <mxGeometry x="1350" y="2770" width="60" height="30" as="geometry" />
        </mxCell>
        <mxCell id="DIb3Ruu_M2pxOwe5c37T-129" value="actualizar stock" style="ellipse;whiteSpace=wrap;html=1;aspect=fixed;" parent="1" vertex="1">
          <mxGeometry x="1250" y="2704.5" width="80" height="80" as="geometry" />
        </mxCell>
        <mxCell id="DIb3Ruu_M2pxOwe5c37T-133" style="edgeStyle=orthogonalEdgeStyle;rounded=0;orthogonalLoop=1;jettySize=auto;html=1;exitX=0.5;exitY=0;exitDx=0;exitDy=0;entryX=1;entryY=1;entryDx=0;entryDy=0;" parent="1" source="DIb3Ruu_M2pxOwe5c37T-130" target="DIb3Ruu_M2pxOwe5c37T-108" edge="1">
          <mxGeometry relative="1" as="geometry" />
        </mxCell>
        <mxCell id="DIb3Ruu_M2pxOwe5c37T-130" value="2" style="text;html=1;align=center;verticalAlign=middle;whiteSpace=wrap;rounded=0;fontFamily=Helvetica;fontSize=12;fontColor=default;" parent="1" vertex="1">
          <mxGeometry x="1260" y="2704.5" width="60" height="30" as="geometry" />
        </mxCell>
      </root>
    </mxGraphModel>
  </diagram>
</mxfile>
